<svg width="132" height="110" viewBox="0 0 132 110" fill="none" xmlns="http://www.w3.org/2000/svg">
<g opacity="0.6">
<path d="M78.0847 28.0859H54.7188V106.416H78.0847V28.0859Z" fill="#E8EAFB"/>
<path d="M66.4648 28.0859H54.7188V106.416H66.4648V28.0859Z" fill="#E8EAFB"/>
<path d="M74.4913 18.8105H58.3164V28.086H74.4913V18.8105Z" fill="#C5CBF5"/>
<path d="M66.4649 18.8105H58.3164V28.086H66.4649V18.8105Z" fill="#E8EAFB"/>
<path d="M70.4956 11.5967H62.3076V18.8091H70.4956V11.5967Z" fill="#C5CBF5"/>
<path d="M66.4646 11.5967H62.3076V18.8091H66.4646V11.5967Z" fill="#E8EAFB"/>
<path d="M67.1467 0.000976562H65.6572V11.5973H67.1467V0.000976562Z" fill="#C5CBF5"/>
<path d="M66.465 0.000976562H65.6572V11.5973H66.465V0.000976562Z" fill="#E8EAFB"/>
<path d="M61.9406 32.3564H57.7363V36.3172H61.9406V32.3564Z" fill="#C5CBF5"/>
<path d="M68.5686 32.3564H64.3643V36.3172H68.5686V32.3564Z" fill="#C5CBF5"/>
<path d="M75.0695 32.3564H70.8652V36.3172H75.0695V32.3564Z" fill="#C5CBF5"/>
<path d="M62.0041 39.7266H57.7998V43.6874H62.0041V39.7266Z" fill="#C5CBF5"/>
<path d="M68.632 39.7266H64.4277V43.6874H68.632V39.7266Z" fill="#C5CBF5"/>
<path d="M75.1291 39.7266H70.9248V43.6874H75.1291V39.7266Z" fill="#C5CBF5"/>
<path d="M62.0666 47.0957H57.8623V51.0565H62.0666V47.0957Z" fill="#C5CBF5"/>
<path d="M68.6906 47.0957H64.4863V51.0565H68.6906V47.0957Z" fill="#C5CBF5"/>
<path d="M75.1926 47.0957H70.9883V51.0565H75.1926V47.0957Z" fill="#C5CBF5"/>
<path d="M62.1301 54.462H57.9258V58.4228H62.1301V54.462Z" fill="#C5CBF5"/>
<path d="M68.7531 54.462H64.5488V58.4228H68.7531V54.462Z" fill="#C5CBF5"/>
<path d="M75.2551 54.462H71.0508V58.4228H75.2551V54.462Z" fill="#C5CBF5"/>
<path d="M62.1906 61.8301H57.9863V65.7909H62.1906V61.8301Z" fill="#C5CBF5"/>
<path d="M68.8186 61.8301H64.6143V65.7909H68.8186V61.8301Z" fill="#C5CBF5"/>
<path d="M75.3205 61.8301H71.1162V65.7909H75.3205V61.8301Z" fill="#C5CBF5"/>
<path d="M62.2521 69.2012H58.0479V73.162H62.2521V69.2012Z" fill="#C5CBF5"/>
<path d="M68.8791 69.2012H64.6748V73.162H68.8791V69.2012Z" fill="#C5CBF5"/>
<path d="M75.382 69.2012H71.1777V73.162H75.382V69.2012Z" fill="#C5CBF5"/>
<path d="M62.3146 76.5693H58.1104V80.5301H62.3146V76.5693Z" fill="#C5CBF5"/>
<path d="M68.9426 76.5694H64.7383V80.5302H68.9426V76.5694Z" fill="#C5CBF5"/>
<path d="M75.4436 76.5693H71.2393V80.5301H75.4436V76.5693Z" fill="#C5CBF5"/>
<path d="M62.3771 83.9395H58.1729V87.9003H62.3771V83.9395Z" fill="#C5CBF5"/>
<path d="M69.0002 83.9395H64.7959V87.9003H69.0002V83.9395Z" fill="#C5CBF5"/>
<path d="M75.5021 83.9395H71.2979V87.9003H75.5021V83.9395Z" fill="#C5CBF5"/>
<path d="M62.4396 91.3105H58.2354V95.2714H62.4396V91.3105Z" fill="#C5CBF5"/>
<path d="M69.0637 91.3105H64.8594V95.2714H69.0637V91.3105Z" fill="#C5CBF5"/>
<path d="M75.5656 91.3105H71.3613V95.2714H75.5656V91.3105Z" fill="#C5CBF5"/>
<path d="M56.4942 63.8536H32.5293V106.532H56.4942V63.8536Z" fill="#C5CBF5"/>
<path d="M58.2909 60.3807H30.7324V64.8733H58.2909V60.3807Z" fill="#C5CBF5"/>
<path d="M58.2909 60.3807H30.7324V61.2268H58.2909V60.3807Z" fill="#E8EAFB"/>
<path d="M54.0069 68.2996H35.0107V70.8985H54.0069V68.2996Z" fill="#E8EAFB"/>
<path d="M54.0069 73.0331H35.0107V75.632H54.0069V73.0331Z" fill="#E8EAFB"/>
<path d="M54.0069 77.7686H35.0107V80.3675H54.0069V77.7686Z" fill="#E8EAFB"/>
<path d="M54.0069 82.5018H35.0107V85.1007H54.0069V82.5018Z" fill="#E8EAFB"/>
<path d="M54.0069 87.2371H35.0107V89.836H54.0069V87.2371Z" fill="#E8EAFB"/>
<path d="M54.0069 91.9705H35.0107V94.5694H54.0069V91.9705Z" fill="#E8EAFB"/>
<path d="M54.0069 96.7068H35.0107V99.3057H54.0069V96.7068Z" fill="#E8EAFB"/>
<path opacity="0.3" d="M56.4942 64.8768H32.5293V66.1903H56.4942V64.8768Z" fill="#7A7B9A"/>
<path d="M100.27 42.6064H78.1016V106.358H100.27V42.6064Z" fill="#C5CBF5"/>
<path opacity="0.3" d="M100.27 42.6064H78.1016V44.75H100.27V42.6064Z" fill="#7A7B9A"/>
<path d="M101.468 35.4355H76.9043V43.1153H101.468V35.4355Z" fill="#E8EAFB"/>
<path d="M101.468 35.4355H76.9043V36.6886H101.468V35.4355Z" fill="#C5CBF5"/>
<path d="M86.6715 47.0624H82.1401C81.9225 47.0624 81.7461 47.2428 81.7461 47.4654V51.6961C81.7461 51.9187 81.9225 52.0991 82.1401 52.0991H86.6715C86.8891 52.0991 87.0655 51.9187 87.0655 51.6961V47.4654C87.0655 47.2428 86.8891 47.0624 86.6715 47.0624Z" fill="#E8EAFB"/>
<path d="M96.2261 47.0624H91.6948C91.4772 47.0624 91.3008 47.2428 91.3008 47.4654V51.6961C91.3008 51.9187 91.4772 52.0991 91.6948 52.0991H96.2261C96.4438 52.0991 96.6202 51.9187 96.6202 51.6961V47.4654C96.6202 47.2428 96.4438 47.0624 96.2261 47.0624Z" fill="#E8EAFB"/>
<path d="M86.6715 54.7986H82.1401C81.9225 54.7986 81.7461 54.979 81.7461 55.2016V59.4323C81.7461 59.6549 81.9225 59.8353 82.1401 59.8353H86.6715C86.8891 59.8353 87.0655 59.6549 87.0655 59.4323V55.2016C87.0655 54.979 86.8891 54.7986 86.6715 54.7986Z" fill="#E8EAFB"/>
<path d="M96.2261 54.7986H91.6948C91.4772 54.7986 91.3008 54.979 91.3008 55.2016V59.4323C91.3008 59.6549 91.4772 59.8353 91.6948 59.8353H96.2261C96.4438 59.8353 96.6202 59.6549 96.6202 59.4323V55.2016C96.6202 54.979 96.4438 54.7986 96.2261 54.7986Z" fill="#E8EAFB"/>
<path d="M86.6715 62.539H82.1401C81.9225 62.539 81.7461 62.7194 81.7461 62.9419V67.1727C81.7461 67.3952 81.9225 67.5756 82.1401 67.5756H86.6715C86.8891 67.5756 87.0655 67.3952 87.0655 67.1727V62.9419C87.0655 62.7194 86.8891 62.539 86.6715 62.539Z" fill="#E8EAFB"/>
<path d="M96.2261 62.539H91.6948C91.4772 62.539 91.3008 62.7194 91.3008 62.9419V67.1727C91.3008 67.3952 91.4772 67.5756 91.6948 67.5756H96.2261C96.4438 67.5756 96.6202 67.3952 96.6202 67.1727V62.9419C96.6202 62.7194 96.4438 62.539 96.2261 62.539Z" fill="#E8EAFB"/>
<path d="M86.6715 70.2744H82.1401C81.9225 70.2744 81.7461 70.4548 81.7461 70.6773V74.9081C81.7461 75.1306 81.9225 75.311 82.1401 75.311H86.6715C86.8891 75.311 87.0655 75.1306 87.0655 74.9081V70.6773C87.0655 70.4548 86.8891 70.2744 86.6715 70.2744Z" fill="#E8EAFB"/>
<path d="M96.2261 70.2744H91.6948C91.4772 70.2744 91.3008 70.4548 91.3008 70.6773V74.9081C91.3008 75.1306 91.4772 75.311 91.6948 75.311H96.2261C96.4438 75.311 96.6202 75.1306 96.6202 74.9081V70.6773C96.6202 70.4548 96.4438 70.2744 96.2261 70.2744Z" fill="#E8EAFB"/>
<path d="M86.6715 78.0107H82.1401C81.9225 78.0107 81.7461 78.1911 81.7461 78.4136V82.6444C81.7461 82.8669 81.9225 83.0473 82.1401 83.0473H86.6715C86.8891 83.0473 87.0655 82.8669 87.0655 82.6444V78.4136C87.0655 78.1911 86.8891 78.0107 86.6715 78.0107Z" fill="#E8EAFB"/>
<path d="M96.2261 78.0107H91.6948C91.4772 78.0107 91.3008 78.1911 91.3008 78.4136V82.6444C91.3008 82.8669 91.4772 83.0473 91.6948 83.0473H96.2261C96.4438 83.0473 96.6202 82.8669 96.6202 82.6444V78.4136C96.6202 78.1911 96.4438 78.0107 96.2261 78.0107Z" fill="#E8EAFB"/>
<path d="M86.6715 85.7471H82.1401C81.9225 85.7471 81.7461 85.9275 81.7461 86.1501V90.3808C81.7461 90.6034 81.9225 90.7838 82.1401 90.7838H86.6715C86.8891 90.7838 87.0655 90.6034 87.0655 90.3808V86.1501C87.0655 85.9275 86.8891 85.7471 86.6715 85.7471Z" fill="#E8EAFB"/>
<path d="M96.2261 85.7471H91.6948C91.4772 85.7471 91.3008 85.9275 91.3008 86.1501V90.3808C91.3008 90.6034 91.4772 90.7838 91.6948 90.7838H96.2261C96.4438 90.7838 96.6202 90.6034 96.6202 90.3808V86.1501C96.6202 85.9275 96.4438 85.7471 96.2261 85.7471Z" fill="#E8EAFB"/>
<path d="M86.6715 93.4833H82.1401C81.9225 93.4833 81.7461 93.6637 81.7461 93.8862V98.117C81.7461 98.3395 81.9225 98.5199 82.1401 98.5199H86.6715C86.8891 98.5199 87.0655 98.3395 87.0655 98.117V93.8862C87.0655 93.6637 86.8891 93.4833 86.6715 93.4833Z" fill="#E8EAFB"/>
<path d="M96.2261 93.4833H91.6948C91.4772 93.4833 91.3008 93.6637 91.3008 93.8862V98.117C91.3008 98.3395 91.4772 98.5199 91.6948 98.5199H96.2261C96.4438 98.5199 96.6202 98.3395 96.6202 98.117V93.8862C96.6202 93.6637 96.4438 93.4833 96.2261 93.4833Z" fill="#E8EAFB"/>
<path d="M36.3451 78.373H2.39551V106.554H36.3451V78.373Z" fill="#E8EAFB"/>
<path d="M38.741 72.6562H0V78.3738H38.741V72.6562Z" fill="#C5CBF5"/>
<path d="M38.741 72.6562H0V73.5829H38.741V72.6562Z" fill="#C5CBF5"/>
<path d="M22.0421 86.1295V82.5878C22.0421 81.5885 21.2422 80.7706 20.265 80.7706H18.8386C17.8614 80.7706 17.0615 81.5885 17.0615 82.5878V86.1295H22.046H22.0421Z" fill="#C5CBF5"/>
<path d="M22.6284 86.0694H16.4658V87.1613H22.6284V86.0694Z" fill="#E8EAFB"/>
<path d="M12.6866 86.1295V82.5878C12.6866 81.5885 11.8867 80.7706 10.9095 80.7706H9.48313C8.50594 80.7706 7.70605 81.5885 7.70605 82.5878V86.1295H12.6905H12.6866Z" fill="#C5CBF5"/>
<path d="M13.274 86.0694H7.11133V87.1613H13.274V86.0694Z" fill="#E8EAFB"/>
<path d="M31.0372 86.1295V82.5878C31.0372 81.5885 30.2373 80.7706 29.2601 80.7706H27.8337C26.8565 80.7706 26.0566 81.5885 26.0566 82.5878V86.1295H31.0411H31.0372Z" fill="#C5CBF5"/>
<path d="M31.6236 86.0694H25.4609V87.1613H31.6236V86.0694Z" fill="#E8EAFB"/>
<path d="M22.0421 94.2489V90.7071C22.0421 89.7078 21.2422 88.8899 20.265 88.8899H18.8386C17.8614 88.8899 17.0615 89.7078 17.0615 90.7071V94.2489H22.046H22.0421Z" fill="#C5CBF5"/>
<path d="M22.6284 94.1887H16.4658V95.2807H22.6284V94.1887Z" fill="#E8EAFB"/>
<path d="M12.6866 94.2489V90.7071C12.6866 89.7078 11.8867 88.8899 10.9095 88.8899H9.48313C8.50594 88.8899 7.70605 89.7078 7.70605 90.7071V94.2489H12.6905H12.6866Z" fill="#C5CBF5"/>
<path d="M13.274 94.1887H7.11133V95.2807H13.274V94.1887Z" fill="#E8EAFB"/>
<path d="M31.0372 94.2489V90.7071C31.0372 89.7078 30.2373 88.8899 29.2601 88.8899H27.8337C26.8565 88.8899 26.0566 89.7078 26.0566 90.7071V94.2489H31.0411H31.0372Z" fill="#C5CBF5"/>
<path d="M31.6236 94.1887H25.4609V95.2807H31.6236V94.1887Z" fill="#E8EAFB"/>
<path d="M22.0421 102.365V98.8231C22.0421 97.8239 21.2422 97.0059 20.265 97.0059H18.8386C17.8614 97.0059 17.0615 97.8239 17.0615 98.8231V102.365H22.046H22.0421Z" fill="#C5CBF5"/>
<path d="M22.6284 102.304H16.4658V103.396H22.6284V102.304Z" fill="#E8EAFB"/>
<path d="M12.6856 102.365V98.8231C12.6856 97.8239 11.8857 97.0059 10.9085 97.0059H9.48215C8.50496 97.0059 7.70508 97.8239 7.70508 98.8231V102.365H12.6896H12.6856Z" fill="#C5CBF5"/>
<path d="M13.274 102.304H7.11133V103.396H13.274V102.304Z" fill="#E8EAFB"/>
<path d="M31.0352 102.365V98.8231C31.0352 97.8239 30.2353 97.0059 29.2581 97.0059H27.8318C26.8546 97.0059 26.0547 97.8239 26.0547 98.8231V102.365H31.0392H31.0352Z" fill="#C5CBF5"/>
<path d="M31.6226 102.304H25.46V103.396H31.6226V102.304Z" fill="#E8EAFB"/>
<path opacity="0.3" d="M36.3451 78.373H2.39551V79.7832H36.3451V78.373Z" fill="#7A7B9A"/>
<path d="M111.51 43.0121V106.405H120.336V33.9824C117.645 36.7344 114.961 39.4784 111.51 43.0081V43.0121Z" fill="#C5CBF5"/>
<path d="M129.162 25.166H128.957L120.332 33.9862V106.409H129.158V25.166H129.162Z" fill="#C5CBF5"/>
<path d="M118.695 46.125H114.755V53.4462H118.695V46.125Z" fill="#7A7B9A"/>
<path d="M126.052 46.125H122.111V53.4462H126.052V46.125Z" fill="#7A7B9A"/>
<path d="M118.695 55.9326H114.755V63.2539H118.695V55.9326Z" fill="#7A7B9A"/>
<path d="M126.052 55.9326H122.111V63.2539H126.052V55.9326Z" fill="#7A7B9A"/>
<path d="M118.695 65.7354H114.755V73.0566H118.695V65.7354Z" fill="#7A7B9A"/>
<path d="M126.052 65.7356H122.111V73.0568H126.052V65.7356Z" fill="#7A7B9A"/>
<path d="M118.695 75.5381H114.755V82.8593H118.695V75.5381Z" fill="#7A7B9A"/>
<path d="M126.052 75.5381H122.111V82.8594H126.052V75.5381Z" fill="#7A7B9A"/>
<path d="M118.695 85.3456H114.755V92.6668H118.695V85.3456Z" fill="#7A7B9A"/>
<path d="M126.052 85.3456H122.111V92.6668H126.052V85.3456Z" fill="#7A7B9A"/>
<path d="M118.695 95.1484H114.755V102.47H118.695V95.1484Z" fill="#7A7B9A"/>
<path d="M126.052 95.1484H122.111V102.47H126.052V95.1484Z" fill="#7A7B9A"/>
<path d="M114.703 54.2121H98.1143V106.182H114.703V54.2121Z" fill="#E8EAFB"/>
<path d="M106.409 54.2121H98.1143V106.182H106.409V54.2121Z" fill="#E8EAFB"/>
<path d="M113.012 50.4757H101.246V54.2109H113.012V50.4757Z" fill="#E8EAFB"/>
<path d="M106.404 50.4757H101.246V54.2109H106.404V50.4757Z" fill="#E8EAFB"/>
<path d="M111.676 47.7402H106.404V50.4802H111.676V47.7402Z" fill="#E8EAFB"/>
<path d="M104.714 57.6816H101.191V101.992H104.714V57.6816Z" fill="#C5CBF5"/>
<path d="M111.621 57.6816H108.099V101.992H111.621V57.6816Z" fill="#C5CBF5"/>
<path d="M130.753 105.972H1.24707C0.557632 105.972 0 106.874 0 107.986C0 109.098 0.557632 110.001 1.24707 110.001H4.33601V109.941H130.185V110.001H130.753C131.442 110.001 132 109.098 132 107.986C132 106.874 131.442 105.972 130.753 105.972Z" fill="#C5CBF5"/>
</g>
</svg>
